# xmcd
#
# Track frame offsets:
# 150
# 20777
# 36681
# 59625
# 82580
# 99225
# 115575
# 143630
# 185400
# 204978
# 239550
# 266782
#
# Disc length: 4265 seconds
#
#
# Revision: 0
# Processed by: cddbd v1.5.1PL2 Copyright (c) Steve Scherf et al.
# Submitted via: FreeRIP 2.53 
#
DISCID=a610a70c
DTITLE=David Foster and the Mohegan Sun All Stars - Powerful Stuff Recorded Live at the Wolf Den
DYEAR=1900
DGENRE=Blues
TTITLE0=01 What A Life
TTITLE1=02 Hig Heeled Sneakers
TTITLE2=03 Breakin' Up Somebody's Home
TTITLE3=04 Crazy
TTITLE4=05 Georgia
TTITLE5=06 Pass The Peas
TTITLE6=07 Every Day I Have The Blues
TTITLE7=08 More Than You'll Ever Know
TTITLE8=09 Powerful Stuff (Love Crazy)
TTITLE9=10 Serve Somebody
TTITLE10=11 Sweet Home Chicago
TTITLE11=12 With A Little Help From My Friends
EXTD=
EXTT0=
EXTT1=
EXTT2=
EXTT3=
EXTT4=
EXTT5=
EXTT6=
EXTT7=
EXTT8=
EXTT9=
EXTT10=
EXTT11=
PLAYORDER=
